<?xml version="1.0" encoding="UTF-8"?>
<svg width="600" height="400" viewBox="0 0 600 400" xmlns="http://www.w3.org/2000/svg">
  <!-- Background -->
  <rect width="600" height="400" fill="#f8f9fa" rx="15" ry="15" />
  
  <!-- Title -->
  <text x="300" y="40" font-family="Arial, sans-serif" font-size="20" font-weight="bold" text-anchor="middle" fill="#FFCC70">
    동적 학습 경로 적응
  </text>
  
  <!-- Path graphics -->
  <!-- Main path -->
  <path d="M50,200 C100,200 120,150 160,150 L240,150 C280,150 300,200 340,200 L420,200 C460,200 480,150 520,150" 
        fill="none" stroke="#FFCC70" stroke-width="6" stroke-linecap="round" stroke-linejoin="round" />
        
  <!-- Alternative path 1 (easier) -->
  <path d="M160,150 C200,150 220,120 240,120 C260,120 280,150 300,150" 
        fill="none" stroke="#4158D0" stroke-width="4" stroke-linecap="round" stroke-linejoin="round" stroke-dasharray="6,3" />
        
  <!-- Alternative path 2 (harder) -->
  <path d="M340,200 C380,200 400,230 420,230 C440,230 460,200 480,200" 
        fill="none" stroke="#C850C0" stroke-width="4" stroke-linecap="round" stroke-linejoin="round" stroke-dasharray="6,3" />
  
  <!-- Learning nodes along the path -->
  <!-- Start -->
  <g transform="translate(50, 200)">
    <circle cx="0" cy="0" r="15" fill="#FFFFFF" stroke="#FFCC70" stroke-width="3" />
    <text x="0" y="5" font-family="Arial, sans-serif" font-size="12" font-weight="bold" text-anchor="middle" fill="#FFCC70">시작</text>
    <text x="0" y="35" font-family="Arial, sans-serif" font-size="10" text-anchor="middle" fill="#6B4F4F">학습 시작점</text>
  </g>
  
  <!-- Node 1 - Main path -->
  <g transform="translate(160, 150)">
    <circle cx="0" cy="0" r="15" fill="#FFFFFF" stroke="#FFCC70" stroke-width="3" />
    <text x="0" y="5" font-family="Arial, sans-serif" font-size="12" font-weight="bold" text-anchor="middle" fill="#FFCC70">1</text>
    
    <!-- Difficulty indicator -->
    <g transform="translate(0, -30)">
      <rect x="-30" y="-10" width="60" height="20" rx="5" ry="5" fill="#FFE8CC" stroke="#FFCC70" stroke-width="1" />
      <text x="0" y="5" font-family="Arial, sans-serif" font-size="10" text-anchor="middle" fill="#6B4F4F">중간 난이도</text>
    </g>
  </g>
  
  <!-- Node 1 - Alternative path (easier) -->
  <g transform="translate(240, 120)">
    <circle cx="0" cy="0" r="15" fill="#FFFFFF" stroke="#4158D0" stroke-width="3" />
    <text x="0" y="5" font-family="Arial, sans-serif" font-size="12" font-weight="bold" text-anchor="middle" fill="#4158D0">1A</text>
    
    <!-- Difficulty indicator -->
    <g transform="translate(0, -30)">
      <rect x="-30" y="-10" width="60" height="20" rx="5" ry="5" fill="#E6F7FF" stroke="#4158D0" stroke-width="1" />
      <text x="0" y="5" font-family="Arial, sans-serif" font-size="10" text-anchor="middle" fill="#6B4F4F">쉬운 난이도</text>
    </g>
  </g>
  
  <!-- Node 2 - Main path -->
  <g transform="translate(340, 200)">
    <circle cx="0" cy="0" r="15" fill="#FFFFFF" stroke="#FFCC70" stroke-width="3" />
    <text x="0" y="5" font-family="Arial, sans-serif" font-size="12" font-weight="bold" text-anchor="middle" fill="#FFCC70">2</text>
    
    <!-- Difficulty indicator -->
    <g transform="translate(0, -30)">
      <rect x="-30" y="-10" width="60" height="20" rx="5" ry="5" fill="#FFE8CC" stroke="#FFCC70" stroke-width="1" />
      <text x="0" y="5" font-family="Arial, sans-serif" font-size="10" text-anchor="middle" fill="#6B4F4F">중간 난이도</text>
    </g>
  </g>
  
  <!-- Node 2 - Alternative path (harder) -->
  <g transform="translate(420, 230)">
    <circle cx="0" cy="0" r="15" fill="#FFFFFF" stroke="#C850C0" stroke-width="3" />
    <text x="0" y="5" font-family="Arial, sans-serif" font-size="12" font-weight="bold" text-anchor="middle" fill="#C850C0">2A</text>
    
    <!-- Difficulty indicator -->
    <g transform="translate(0, 30)">
      <rect x="-30" y="-10" width="60" height="20" rx="5" ry="5" fill="#FFF0F6" stroke="#C850C0" stroke-width="1" />
      <text x="0" y="5" font-family="Arial, sans-serif" font-size="10" text-anchor="middle" fill="#6B4F4F">어려운 난이도</text>
    </g>
  </g>
  
  <!-- End -->
  <g transform="translate(520, 150)">
    <circle cx="0" cy="0" r="15" fill="#FFFFFF" stroke="#FFCC70" stroke-width="3" />
    <text x="0" y="5" font-family="Arial, sans-serif" font-size="12" font-weight="bold" text-anchor="middle" fill="#FFCC70">종료</text>
    <text x="0" y="35" font-family="Arial, sans-serif" font-size="10" text-anchor="middle" fill="#6B4F4F">학습 목표 달성</text>
  </g>
  
  <!-- Adaptive engine -->
  <g transform="translate(300, 330)">
    <rect x="-150" y="-40" width="300" height="80" rx="10" ry="10" fill="#F3F0FF" stroke="#845EF7" stroke-width="2" />
    <text x="0" y="-15" font-family="Arial, sans-serif" font-size="16" font-weight="bold" text-anchor="middle" fill="#845EF7">
      적응형 학습 엔진
    </text>
    <text x="0" y="10" font-family="Arial, sans-serif" font-size="12" text-anchor="middle" fill="#6B4F4F">
      실시간 학습자 상태 모니터링
    </text>
    <text x="0" y="30" font-family="Arial, sans-serif" font-size="12" text-anchor="middle" fill="#6B4F4F">
      개인 맞춤형 학습 경로 동적 조정
    </text>
  </g>
  
  <!-- Decision points -->
  <g transform="translate(160, 150)">
    <!-- Sensor data indicators -->
    <path d="M0,-15 L0,-60" fill="none" stroke="#20C997" stroke-width="2" stroke-dasharray="3,2" />
    <circle cx="0" cy="-60" r="12" fill="#E6FCF5" stroke="#20C997" stroke-width="2" />
    <text x="0" y="-57" font-family="Arial, sans-serif" font-size="12" font-weight="bold" text-anchor="middle" fill="#20C997">?</text>
    
    <!-- Decision point text -->
    <g transform="translate(-60, -80)">
      <rect x="-50" y="-15" width="100" height="30" rx="5" ry="5" fill="#FFFFFF" stroke="#20C997" stroke-width="1" />
      <text x="0" y="0" font-family="Arial, sans-serif" font-size="10" text-anchor="middle" fill="#20C997">집중도 낮음 감지</text>
      <text x="0" y="15" font-family="Arial, sans-serif" font-size="10" text-anchor="middle" fill="#20C997">더 쉬운 경로로 전환</text>
    </g>
    
    <!-- Connection to alternative path -->
    <path d="M0,-60 L-60,-80" fill="none" stroke="#20C997" stroke-width="1" stroke-dasharray="3,2" />
  </g>
  
  <g transform="translate(340, 200)">
    <!-- Sensor data indicators -->
    <path d="M0,-15 L0,-60" fill="none" stroke="#845EF7" stroke-width="2" stroke-dasharray="3,2" />
    <circle cx="0" cy="-60" r="12" fill="#F3F0FF" stroke="#845EF7" stroke-width="2" />
    <text x="0" y="-57" font-family="Arial, sans-serif" font-size="12" font-weight="bold" text-anchor="middle" fill="#845EF7">?</text>
    
    <!-- Decision point text -->
    <g transform="translate(60, -80)">
      <rect x="-50" y="-15" width="100" height="30" rx="5" ry="5" fill="#FFFFFF" stroke="#845EF7" stroke-width="1" />
      <text x="0" y="0" font-family="Arial, sans-serif" font-size="10" text-anchor="middle" fill="#845EF7">인지 상태 최적</text>
      <text x="0" y="15" font-family="Arial, sans-serif" font-size="10" text-anchor="middle" fill="#845EF7">어려운 경로로 전환</text>
    </g>
    
    <!-- Connection to alternative path -->
    <path d="M0,-60 L60,-80" fill="none" stroke="#845EF7" stroke-width="1" stroke-dasharray="3,2" />
  </g>
  
  <!-- Cognitive state indicators -->
  <g transform="translate(185, 80)">
    <g>
      <rect x="-30" y="-15" width="60" height="30" rx="5" ry="5" fill="#FFF9DB" stroke="#FFCC70" stroke-width="1" />
      <text x="0" y="0" font-family="Arial, sans-serif" font-size="10" text-anchor="middle" fill="#6B4F4F">집중도</text>
      <rect x="-20" y="5" width="40" height="5" rx="2" ry="2" fill="#FFFFFF" stroke="#FFCC70" stroke-width="1" />
      <rect x="-20" y="5" width="15" height="5" rx="2" ry="2" fill="#FFCC70" />
    </g>
    
    <g transform="translate(80, 0)">
      <rect x="-30" y="-15" width="60" height="30" rx="5" ry="5" fill="#FFF9DB" stroke="#FFCC70" stroke-width="1" />
      <text x="0" y="0" font-family="Arial, sans-serif" font-size="10" text-anchor="middle" fill="#6B4F4F">인지 부하</text>
      <rect x="-20" y="5" width="40" height="5" rx="2" ry="2" fill="#FFFFFF" stroke="#FFCC70" stroke-width="1" />
      <rect x="-20" y="5" width="30" height="5" rx="2" ry="2" fill="#FFCC70" />
    </g>
    
    <g transform="translate(160, 0)">
      <rect x="-30" y="-15" width="60" height="30" rx="5" ry="5" fill="#FFF9DB" stroke="#FFCC70" stroke-width="1" />
      <text x="0" y="0" font-family="Arial, sans-serif" font-size="10" text-anchor="middle" fill="#6B4F4F">참여도</text>
      <rect x="-20" y="5" width="40" height="5" rx="2" ry="2" fill="#FFFFFF" stroke="#FFCC70" stroke-width="1" />
      <rect x="-20" y="5" width="10" height="5" rx="2" ry="2" fill="#FFCC70" />
    </g>
  </g>
</svg>
