<?xml version="1.0" encoding="UTF-8"?>
<svg viewBox="0 0 800 400" xmlns="http://www.w3.org/2000/svg">
  <defs>
    <!-- 빛 효과를 위한 필터 -->
    <filter id="glow" x="-50%" y="-50%" width="200%" height="200%">
      <feGaussianBlur stdDeviation="5" result="blur" />
      <feComposite in="SourceGraphic" in2="blur" operator="over" />
    </filter>
    
    <!-- 애니메이션 경로 -->
    <path id="bluePath" d="M 200,230 Q 250,180 300,230 Q 350,280 400,230 Q 450,180 500,230" fill="none" stroke="rgba(70,130,255,0.3)" stroke-width="3" stroke-dasharray="5,5" />
    
    <path id="pinkPath" d="M 100,330 Q 150,290 200,330 Q 250,370 300,330 Q 350,290 400,330 Q 450,370 500,330" fill="none" stroke="rgba(255,70,180,0.3)" stroke-width="3" stroke-dasharray="5,5" />
  </defs>
  
  <!-- 배경 그라데이션 -->
  <rect x="0" y="0" width="800" height="400" fill="url(#bgGradient)" rx="15" ry="15" />
  <linearGradient id="bgGradient" x1="0%" y1="0%" x2="100%" y2="0%">
    <stop offset="0%" stop-color="#d8e0ff" />
    <stop offset="100%" stop-color="#fff5e0" />
  </linearGradient>
  
  <!-- 제목 텍스트 -->
  <text x="400" y="160" font-family="Arial, sans-serif" font-size="28" font-weight="bold" text-anchor="middle" fill="#4169e1">AI 기반 개인 맞춤형 학습 경로 추천 시스템</text>
  <text x="400" y="200" font-family="Arial, sans-serif" font-size="18" text-anchor="middle" fill="#666">AI-based Personalized Learning Path Recommendation System</text>
  
  <!-- 경로 (위의 defs에서 정의됨) -->
  <use href="#bluePath" />
  <use href="#pinkPath" />
  
  <!-- 뇌 이미지 (단순화된 버전) -->
  <path d="M 700,300 C 750,250 780,300 760,350 C 780,400 730,450 680,430 C 630,450 580,400 600,350 C 580,300 650,250 700,300" fill="none" stroke="#f0e8d0" stroke-width="3" />
  
  <!-- 캐릭터 얼굴 -->
  <circle cx="140" cy="280" r="40" fill="#f9d7bd" />
  <path d="M 110,290 Q 140,320 170,290" fill="none" stroke="#333" stroke-width="2" />
  <circle cx="120" cy="260" r="5" fill="#333" />
  <circle cx="160" cy="260" r="5" fill="#333" />
  <path d="M 100,230 C 120,220 160,220 180,230" fill="#333" />
  
  <!-- 전구/아이디어 -->
  <circle cx="140" cy="180" r="30" fill="#ffeb3b" filter="url(#glow)" />
  <circle cx="140" cy="180" r="25" fill="#ffee58" />
  
  <!-- 아이콘 (브레인 로고) -->
  <g transform="translate(40, 45) scale(0.75)">
    <path d="M 40,40 C 20,30 10,50 30,60 C 10,70 20,90 40,80 C 60,90 70,70 50,60 C 70,50 60,30 40,40" fill="#ff80ab" stroke="none" />
  </g>
  
  <!-- 움직이는 빛 효과 -->
  <circle id="blueLight" r="6" fill="#4169e1" filter="url(#glow)">
    <animateMotion dur="4s" repeatCount="indefinite" path="M 200,230 Q 250,180 300,230 Q 350,280 400,230 Q 450,180 500,230" />
  </circle>
  
  <circle id="pinkLight" r="6" fill="#ff47b6" filter="url(#glow)">
    <animateMotion dur="4.5s" repeatCount="indefinite" path="M 100,330 Q 150,290 200,330 Q 250,370 300,330 Q 350,290 400,330 Q 450,370 500,330" />
  </circle>
</svg>