<?xml version="1.0" encoding="UTF-8"?>
<svg width="700" height="400" viewBox="0 0 700 400" xmlns="http://www.w3.org/2000/svg">
  <style>
    @keyframes flowAnimation {
      0% { stroke-dashoffset: 1000; }
      100% { stroke-dashoffset: 0; }
    }
    @keyframes pulse {
      0% { transform: scale(1); opacity: 0.8; }
      50% { transform: scale(1.05); opacity: 1; }
      100% { transform: scale(1); opacity: 0.8; }
    }
    @keyframes fadeIn {
      from { opacity: 0; }
      to { opacity: 1; }
    }
    @keyframes rotateColor {
      0% { fill: #ff4081; }
      33% { fill: #40c4ff; }
      66% { fill: #b2ff59; }
      100% { fill: #ff4081; }
    }
    
    .flow-path {
      stroke-dasharray: 1000;
      stroke-dashoffset: 1000;
      animation: flowAnimation 15s linear infinite;
    }
    .sensor { animation: pulse 2s infinite ease-in-out; }
    .data-point { animation: fadeIn 0.5s ease-out forwards, pulse 3s infinite ease-in-out 0.5s; }
    .process-node { animation: rotateColor 8s infinite ease-in-out; }
    
    text {
      font-family: Arial, sans-serif;
      fill: white;
    }
    .title { font-size: 20px; font-weight: bold; }
    .label { font-size: 12px; }
    .small-label { font-size: 10px; }
  </style>
  
  <defs>
    <linearGradient id="bg-gradient" x1="0%" y1="0%" x2="100%" y2="100%">
      <stop offset="0%" stop-color="#1a237e" />
      <stop offset="100%" stop-color="#311b92" />
    </linearGradient>
    
    <marker id="arrowhead" markerWidth="10" markerHeight="7" refX="10" refY="3.5" orient="auto">
      <polygon points="0 0, 10 3.5, 0 7" fill="#64ffda" />
    </marker>
  </defs>
  
  <!-- Background -->
  <rect width="700" height="400" fill="url(#bg-gradient)" rx="10" ry="10" />
  
  <!-- Title -->
  <text x="350" y="30" text-anchor="middle" class="title">AI Personalized Learning System - Data Flow</text>
  
  <!-- Data Collection Layer -->
  <g transform="translate(50, 100)">
    <!-- Label -->
    <text x="0" y="-20" class="label">Data Collection</text>
    
    <!-- Sensors -->
    <circle cx="20" cy="0" r="15" fill="#e91e63" class="sensor" />
    <text x="20" y="30" text-anchor="middle" class="small-label">Biometric</text>
    
    <circle cx="70" cy="0" r="15" fill="#e91e63" class="sensor" />
    <text x="70" y="30" text-anchor="middle" class="small-label">Eye Tracking</text>
    
    <circle cx="120" cy="0" r="15" fill="#e91e63" class="sensor" />
    <text x="120" y="30" text-anchor="middle" class="small-label">Facial</text>
    
    <circle cx="170" cy="0" r="15" fill="#e91e63" class="sensor" />
    <text x="170" y="30" text-anchor="middle" class="small-label">Environment</text>
  </g>
  
  <!-- Edge Processing Layer -->
  <g transform="translate(50, 180)">
    <!-- Label -->
    <text x="0" y="-20" class="label">Edge Processing</text>
    
    <!-- Edge Devices -->
    <rect x="10" y="0" width="180" height="40" rx="5" ry="5" fill="#7b1fa2" />
    <text x="100" y="25" text-anchor="middle" class="small-label">Real-time Data Analysis</text>
  </g>
  
  <!-- AI Analysis Layer -->
  <g transform="translate(350, 140)">
    <!-- Label -->
    <text x="0" y="-20" class="label">AI Analysis & Learning Path Generation</text>
    
    <!-- Processing Nodes -->
    <circle cx="0" cy="0" r="25" class="process-node" />
    <text x="0" y="5" text-anchor="middle" class="small-label">Deep</text>
    <text x="0" y="20" text-anchor="middle" class="small-label">Learning</text>
    
    <circle cx="80" cy="0" r="25" class="process-node" />
    <text x="80" y="5" text-anchor="middle" class="small-label">Reinforcement</text>
    <text x="80" y="20" text-anchor="middle" class="small-label">Learning</text>
    
    <circle cx="160" cy="0" r="25" class="process-node" />
    <text x="160" y="5" text-anchor="middle" class="small-label">Knowledge</text>
    <text x="160" y="20" text-anchor="middle" class="small-label">Graph</text>
  </g>
  
  <!-- Content Generation Layer -->
  <g transform="translate(600, 180)">
    <!-- Label -->
    <text x="0" y="-20" class="label">Content Generation</text>
    
    <!-- Content Types -->
    <rect x="-50" y="0" width="100" height="100" rx="10" ry="10" fill="#0d47a1" />
    <text x="0" y="30" text-anchor="middle" class="small-label">AI Generated</text>
    <text x="0" y="50" text-anchor="middle" class="small-label">Personalized</text>
    <text x="0" y="70" text-anchor="middle" class="small-label">Learning Content</text>
  </g>
  
  <!-- User Interface Layer -->
  <g transform="translate(350, 300)">
    <!-- Label -->
    <text x="0" y="-20" class="label">User Interface</text>
    
    <!-- UI Representation -->
    <rect x="-100" y="0" width="200" height="60" rx="5" ry="5" fill="#1565c0" />
    <text x="0" y="20" text-anchor="middle" class="small-label">Adaptive Learning Experience</text>
    <text x="0" y="40" text-anchor="middle" class="small-label">Personalized Feedback</text>
  </g>
  
  <!-- Data Points (animated along the flow) -->
  <g>
    <circle cx="70" cy="100" r="4" fill="#64ffda" class="data-point" style="animation-delay: 0s;" />
    <circle cx="120" cy="100" r="4" fill="#64ffda" class="data-point" style="animation-delay: 0.2s;" />
    <circle cx="170" cy="100" r="4" fill="#64ffda" class="data-point" style="animation-delay: 0.4s;" />
    <circle cx="220" cy="100" r="4" fill="#64ffda" class="data-point" style="animation-delay: 0.6s;" />
    
    <circle cx="100" cy="180" r="4" fill="#64ffda" class="data-point" style="animation-delay: 1s;" />
    <circle cx="140" cy="180" r="4" fill="#64ffda" class="data-point" style="animation-delay: 1.2s;" />
    <circle cx="180" cy="180" r="4" fill="#64ffda" class="data-point" style="animation-delay: 1.4s;" />
    
    <circle cx="350" cy="140" r="4" fill="#64ffda" class="data-point" style="animation-delay: 2s;" />
    <circle cx="430" cy="140" r="4" fill="#64ffda" class="data-point" style="animation-delay: 2.5s;" />
    <circle cx="510" cy="140" r="4" fill="#64ffda" class="data-point" style="animation-delay: 3s;" />
    
    <circle cx="600" cy="180" r="4" fill="#64ffda" class="data-point" style="animation-delay: 3.5s;" />
    <circle cx="600" cy="210" r="4" fill="#64ffda" class="data-point" style="animation-delay: 4s;" />
    <circle cx="600" cy="240" r="4" fill="#64ffda" class="data-point" style="animation-delay: 4.5s;" />
    
    <circle cx="450" cy="300" r="4" fill="#64ffda" class="data-point" style="animation-delay: 5s;" />
    <circle cx="400" cy="300" r="4" fill="#64ffda" class="data-point" style="animation-delay: 5.2s;" />
    <circle cx="350" cy="300" r="4" fill="#64ffda" class="data-point" style="animation-delay: 5.4s;" />
    <circle cx="300" cy="300" r="4" fill="#64ffda" class="data-point" style="animation-delay: 5.6s;" />
    <circle cx="250" cy="300" r="4" fill="#64ffda" class="data-point" style="animation-delay: 5.8s;" />
  </g>
  
  <!-- Connection Paths -->
  <!-- Collection to Edge -->
  <path d="M70,120 C70,140 70,160 70,170" stroke="#64ffda" stroke-width="2" fill="none" class="flow-path" marker-end="url(#arrowhead)" />
  <path d="M120,120 C120,140 120,160 120,170" stroke="#64ffda" stroke-width="2" fill="none" class="flow-path" marker-end="url(#arrowhead)" />
  <path d="M170,120 C170,140 170,160 170,170" stroke="#64ffda" stroke-width="2" fill="none" class="flow-path" marker-end="url(#arrowhead)" />
  <path d="M220,120 C220,140 220,160 220,170" stroke="#64ffda" stroke-width="2" fill="none" class="flow-path" marker-end="url(#arrowhead)" />
  
  <!-- Edge to AI Analysis -->
  <path d="M240,200 C290,200 300,160 340,150" stroke="#64ffda" stroke-width="2" fill="none" class="flow-path" marker-end="url(#arrowhead)" />
  <path d="M240,200 C290,200 340,180 420,150" stroke="#64ffda" stroke-width="2" fill="none" class="flow-path" marker-end="url(#arrowhead)" />
  <path d="M240,200 C290,200 380,200 500,150" stroke="#64ffda" stroke-width="2" fill="none" class="flow-path" marker-end="url(#arrowhead)" />
  
  <!-- AI Analysis to Content -->
  <path d="M520,150 C550,150 570,160 590,170" stroke="#64ffda" stroke-width="2" fill="none" class="flow-path" marker-end="url(#arrowhead)" />
  
  <!-- Content to UI -->
  <path d="M570,230 C520,260 450,270 400,290" stroke="#64ffda" stroke-width="2" fill="none" class="flow-path" marker-end="url(#arrowhead)" />
  
  <!-- AI Analysis direct to UI -->
  <path d="M430,170 C430,220 430,250 430,290" stroke="#64ffda" stroke-width="2" fill="none" class="flow-path" marker-end="url(#arrowhead)" />
  <path d="M350,170 C350,220 350,250 350,290" stroke="#64ffda" stroke-width="2" fill="none" class="flow-path" marker-end="url(#arrowhead)" />
  
  <!-- UI feedback to Collection (feedback loop) -->
  <path d="M270,330 C160,330 120,280 120,230" stroke="#ff1744" stroke-width="2" fill="none" class="flow-path" marker-end="url(#arrowhead)" />
</svg>
